<svg width="20" height="20" viewBox="0 0 20 20" fill="none" xmlns="http://www.w3.org/2000/svg">
<path fill-rule="evenodd" clip-rule="evenodd" d="M14.5001 16.6667C8.34264 16.6667 3.33348 11.6567 3.33348 5.50008C3.33348 4.30508 4.30514 3.33341 5.50014 3.33341C5.59098 3.33341 5.68098 3.33925 5.77264 3.35091L6.65681 7.20175C6.54738 7.25868 6.43027 7.31992 6.31605 7.37966L6.20848 7.43591C5.49014 7.81091 4.92348 8.10758 5.22098 8.76175C6.20098 11.5501 8.45014 13.8001 11.2051 14.7667C11.907 15.048 12.1794 14.5272 12.556 13.8071L12.561 13.7976C12.6042 13.7157 12.6488 13.6302 12.6929 13.5455L12.693 13.5453C12.7287 13.4767 12.7642 13.4087 12.7985 13.3434L16.6485 14.2267C16.661 14.3167 16.6668 14.4076 16.6668 14.5001C16.6668 15.6951 15.6951 16.6667 14.5001 16.6667ZM18.126 13.2567C18.0318 12.9859 17.8051 12.7826 17.5251 12.7184L12.5551 11.5776C12.281 11.5159 11.9943 11.5934 11.7918 11.7884C11.6726 11.9017 11.6701 11.9051 11.1285 12.9392C9.35348 12.1309 7.89931 10.6817 7.06264 8.87008C8.09514 8.32925 8.09764 8.32675 8.21181 8.20842C8.40681 8.00508 8.48514 7.71842 8.42264 7.44508L7.28181 2.47508C7.21764 2.19508 7.01348 1.96758 6.74264 1.87341C6.54431 1.80508 6.34014 1.75341 6.13848 1.72091C5.93098 1.68508 5.71681 1.66675 5.50014 1.66675C3.38598 1.66675 1.66681 3.38591 1.66681 5.50008C1.66681 12.5767 7.42348 18.3334 14.5001 18.3334C16.6135 18.3334 18.3335 16.6142 18.3335 14.5001C18.3335 14.2851 18.3143 14.0726 18.2793 13.8659C18.246 13.6576 18.1943 13.4534 18.126 13.2567ZM10.8332 6.66675C12.2115 6.66675 13.3332 7.78841 13.3332 9.16675C13.3332 9.62758 13.7057 10.0001 14.1665 10.0001C14.6273 10.0001 14.9998 9.62758 14.9998 9.16675C14.9998 6.86925 13.1307 5.00008 10.8332 5.00008C10.3732 5.00008 9.99982 5.37258 9.99982 5.83341C9.99982 6.29425 10.3732 6.66675 10.8332 6.66675ZM16.6665 9.16675C16.6665 5.95091 14.049 3.33341 10.8332 3.33341C10.3732 3.33341 9.99982 2.96091 9.99982 2.50008C9.99982 2.03925 10.3732 1.66675 10.8332 1.66675C14.969 1.66675 18.3332 5.03091 18.3332 9.16675C18.3332 9.62758 17.9607 10.0001 17.4998 10.0001C17.039 10.0001 16.6665 9.62758 16.6665 9.16675Z" fill="#231F20"/>
<mask id="mask0_284_1564" style="mask-type:alpha" maskUnits="userSpaceOnUse" x="1" y="1" width="18" height="18">
<path fill-rule="evenodd" clip-rule="evenodd" d="M14.5001 16.6667C8.34264 16.6667 3.33348 11.6567 3.33348 5.50008C3.33348 4.30508 4.30514 3.33341 5.50014 3.33341C5.59098 3.33341 5.68098 3.33925 5.77264 3.35091L6.65681 7.20175C6.54738 7.25868 6.43027 7.31992 6.31605 7.37966L6.20848 7.43591C5.49014 7.81091 4.92348 8.10758 5.22098 8.76175C6.20098 11.5501 8.45014 13.8001 11.2051 14.7667C11.907 15.048 12.1794 14.5272 12.556 13.8071L12.561 13.7976C12.6042 13.7157 12.6488 13.6302 12.6929 13.5455L12.693 13.5453C12.7287 13.4767 12.7642 13.4087 12.7985 13.3434L16.6485 14.2267C16.661 14.3167 16.6668 14.4076 16.6668 14.5001C16.6668 15.6951 15.6951 16.6667 14.5001 16.6667ZM18.126 13.2567C18.0318 12.9859 17.8051 12.7826 17.5251 12.7184L12.5551 11.5776C12.281 11.5159 11.9943 11.5934 11.7918 11.7884C11.6726 11.9017 11.6701 11.9051 11.1285 12.9392C9.35348 12.1309 7.89931 10.6817 7.06264 8.87008C8.09514 8.32925 8.09764 8.32675 8.21181 8.20842C8.40681 8.00508 8.48514 7.71842 8.42264 7.44508L7.28181 2.47508C7.21764 2.19508 7.01348 1.96758 6.74264 1.87341C6.54431 1.80508 6.34014 1.75341 6.13848 1.72091C5.93098 1.68508 5.71681 1.66675 5.50014 1.66675C3.38598 1.66675 1.66681 3.38591 1.66681 5.50008C1.66681 12.5767 7.42348 18.3334 14.5001 18.3334C16.6135 18.3334 18.3335 16.6142 18.3335 14.5001C18.3335 14.2851 18.3143 14.0726 18.2793 13.8659C18.246 13.6576 18.1943 13.4534 18.126 13.2567ZM10.8332 6.66675C12.2115 6.66675 13.3332 7.78841 13.3332 9.16675C13.3332 9.62758 13.7057 10.0001 14.1665 10.0001C14.6273 10.0001 14.9998 9.62758 14.9998 9.16675C14.9998 6.86925 13.1307 5.00008 10.8332 5.00008C10.3732 5.00008 9.99982 5.37258 9.99982 5.83341C9.99982 6.29425 10.3732 6.66675 10.8332 6.66675ZM16.6665 9.16675C16.6665 5.95091 14.049 3.33341 10.8332 3.33341C10.3732 3.33341 9.99982 2.96091 9.99982 2.50008C9.99982 2.03925 10.3732 1.66675 10.8332 1.66675C14.969 1.66675 18.3332 5.03091 18.3332 9.16675C18.3332 9.62758 17.9607 10.0001 17.4998 10.0001C17.039 10.0001 16.6665 9.62758 16.6665 9.16675Z" fill="white"/>
</mask>
<g mask="url(#mask0_284_1564)">
<rect x="-0.000183105" width="20" height="20" fill="#00094A"/>
</g>
</svg>
