<svg width="24" height="24" viewBox="0 0 24 24" fill="none" xmlns="http://www.w3.org/2000/svg">
<path fill-rule="evenodd" clip-rule="evenodd" d="M12.0001 6C12.5521 6 13.0001 5.553 13.0001 5V3C13.0001 2.447 12.5521 2 12.0001 2C11.4481 2 11.0001 2.447 11.0001 3V5C11.0001 5.553 11.4481 6 12.0001 6ZM12.0001 14C10.8971 14 10.0001 13.103 10.0001 12C10.0001 10.897 10.8971 10 12.0001 10C13.1031 10 14.0001 10.897 14.0001 12C14.0001 13.103 13.1031 14 12.0001 14ZM12.0001 8C9.79406 8 8.00006 9.794 8.00006 12C8.00006 14.206 9.79406 16 12.0001 16C14.2061 16 16.0001 14.206 16.0001 12C16.0001 9.794 14.2061 8 12.0001 8ZM19.0001 11H21.0001C21.5521 11 22.0001 11.447 22.0001 12C22.0001 12.553 21.5521 13 21.0001 13H19.0001C18.4481 13 18.0001 12.553 18.0001 12C18.0001 11.447 18.4481 11 19.0001 11ZM6.00006 12C6.00006 11.447 5.55206 11 5.00006 11H3.00006C2.44806 11 2.00006 11.447 2.00006 12C2.00006 12.553 2.44806 13 3.00006 13H5.00006C5.55206 13 6.00006 12.553 6.00006 12ZM4.80676 5.0533C5.19076 4.6573 5.82376 4.6453 6.22076 5.0283L7.65976 6.4183C8.05676 6.8013 8.06776 7.4353 7.68376 7.8323C7.48776 8.0353 7.22676 8.1373 6.96476 8.1373C6.71476 8.1373 6.46476 8.0453 6.26976 7.8573L4.83076 6.4673C4.43376 6.0843 4.42276 5.4503 4.80676 5.0533ZM17.0353 8.1377C17.2853 8.1377 17.5353 8.0447 17.7303 7.8577L19.1693 6.4677C19.5663 6.0837 19.5773 5.4497 19.1933 5.0537C18.8103 4.6577 18.1783 4.6457 17.7793 5.0287L16.3403 6.4177C15.9433 6.8017 15.9323 7.4357 16.3163 7.8317C16.5123 8.0347 16.7733 8.1377 17.0353 8.1377ZM11.0001 19C11.0001 18.447 11.4481 18 12.0001 18C12.5521 18 13.0001 18.447 13.0001 19V21C13.0001 21.553 12.5521 22 12.0001 22C11.4481 22 11.0001 21.553 11.0001 21V19ZM17.7301 16.1426C17.3331 15.7596 16.7001 15.7716 16.3161 16.1676C15.9321 16.5646 15.9431 17.1986 16.3401 17.5816L17.7791 18.9716C17.9741 19.1596 18.2241 19.2516 18.4741 19.2516C18.7361 19.2516 18.9971 19.1496 19.1931 18.9466C19.5771 18.5496 19.5661 17.9156 19.1691 17.5326L17.7301 16.1426ZM4.83106 17.5326L6.27006 16.1426C6.66806 15.7596 7.30106 15.7716 7.68406 16.1676C8.06806 16.5646 8.05706 17.1986 7.66006 17.5816L6.22106 18.9716C6.02606 19.1596 5.77606 19.2516 5.52606 19.2516C5.26406 19.2516 5.00306 19.1496 4.80706 18.9466C4.42306 18.5496 4.43406 17.9156 4.83106 17.5326Z" fill="#00094A"/>
<mask id="mask0_284_1583" style="mask-type:alpha" maskUnits="userSpaceOnUse" x="2" y="2" width="20" height="20">
<path fill-rule="evenodd" clip-rule="evenodd" d="M12.0001 6C12.5521 6 13.0001 5.553 13.0001 5V3C13.0001 2.447 12.5521 2 12.0001 2C11.4481 2 11.0001 2.447 11.0001 3V5C11.0001 5.553 11.4481 6 12.0001 6ZM12.0001 14C10.8971 14 10.0001 13.103 10.0001 12C10.0001 10.897 10.8971 10 12.0001 10C13.1031 10 14.0001 10.897 14.0001 12C14.0001 13.103 13.1031 14 12.0001 14ZM12.0001 8C9.79406 8 8.00006 9.794 8.00006 12C8.00006 14.206 9.79406 16 12.0001 16C14.2061 16 16.0001 14.206 16.0001 12C16.0001 9.794 14.2061 8 12.0001 8ZM19.0001 11H21.0001C21.5521 11 22.0001 11.447 22.0001 12C22.0001 12.553 21.5521 13 21.0001 13H19.0001C18.4481 13 18.0001 12.553 18.0001 12C18.0001 11.447 18.4481 11 19.0001 11ZM6.00006 12C6.00006 11.447 5.55206 11 5.00006 11H3.00006C2.44806 11 2.00006 11.447 2.00006 12C2.00006 12.553 2.44806 13 3.00006 13H5.00006C5.55206 13 6.00006 12.553 6.00006 12ZM4.80676 5.0533C5.19076 4.6573 5.82376 4.6453 6.22076 5.0283L7.65976 6.4183C8.05676 6.8013 8.06776 7.4353 7.68376 7.8323C7.48776 8.0353 7.22676 8.1373 6.96476 8.1373C6.71476 8.1373 6.46476 8.0453 6.26976 7.8573L4.83076 6.4673C4.43376 6.0843 4.42276 5.4503 4.80676 5.0533ZM17.0353 8.1377C17.2853 8.1377 17.5353 8.0447 17.7303 7.8577L19.1693 6.4677C19.5663 6.0837 19.5773 5.4497 19.1933 5.0537C18.8103 4.6577 18.1783 4.6457 17.7793 5.0287L16.3403 6.4177C15.9433 6.8017 15.9323 7.4357 16.3163 7.8317C16.5123 8.0347 16.7733 8.1377 17.0353 8.1377ZM11.0001 19C11.0001 18.447 11.4481 18 12.0001 18C12.5521 18 13.0001 18.447 13.0001 19V21C13.0001 21.553 12.5521 22 12.0001 22C11.4481 22 11.0001 21.553 11.0001 21V19ZM17.7301 16.1426C17.3331 15.7596 16.7001 15.7716 16.3161 16.1676C15.9321 16.5646 15.9431 17.1986 16.3401 17.5816L17.7791 18.9716C17.9741 19.1596 18.2241 19.2516 18.4741 19.2516C18.7361 19.2516 18.9971 19.1496 19.1931 18.9466C19.5771 18.5496 19.5661 17.9156 19.1691 17.5326L17.7301 16.1426ZM4.83106 17.5326L6.27006 16.1426C6.66806 15.7596 7.30106 15.7716 7.68406 16.1676C8.06806 16.5646 8.05706 17.1986 7.66006 17.5816L6.22106 18.9716C6.02606 19.1596 5.77606 19.2516 5.52606 19.2516C5.26406 19.2516 5.00306 19.1496 4.80706 18.9466C4.42306 18.5496 4.43406 17.9156 4.83106 17.5326Z" fill="white"/>
</mask>
<g mask="url(#mask0_284_1583)">
<rect x="6.10352e-05" width="24" height="24" fill="#00094A"/>
</g>
</svg>
